# xmcd CD database file
#
# Track frame offsets:
#	150
#	38160
#	69232
#	107535
#	134860
#	173055
#	207562
#	227420
#	259680
#	296867
#
# Disc length: 4274 seconds
#
# Revision: 0
# Processed by: cddbd v1.4PL0 Copyright (c) Steve Scherf et al.
# Submitted via: CDex 1.51
#
DISCID=9310b00a
DTITLE=Aydin Esen - Pictures
DYEAR=1989
DGENRE=Jazz
TTITLE0=Finger Wave
TTITLE1=Panic
TTITLE2=A New Song
TTITLE3=Footprints
TTITLE4=Paintings
TTITLE5=Pictures
TTITLE6=Green Bossa
TTITLE7=Spring Can Really Hang You Up The Most
TTITLE8=Domination
TTITLE9=We'll Be Together Again
EXTD=YEAR: 1989
EXTT0=
EXTT1=
EXTT2=
EXTT3=
EXTT4=
EXTT5=
EXTT6=
EXTT7=
EXTT8=
EXTT9=
PLAYORDER=
